<svg width="84" height="105" viewBox="0 0 84 105" fill="none" xmlns="http://www.w3.org/2000/svg">
<path d="M42 0C27.5257 0 15.75 11.7758 15.75 26.25V42H10.5C7.71523 42 5.04451 43.1063 3.07538 45.0754C1.10625 47.0445 0 49.7152 0 52.5V94.5C0 97.2848 1.10625 99.9555 3.07538 101.925C5.04451 103.894 7.71523 105 10.5 105H73.5C76.2848 105 78.9555 103.894 80.9246 101.925C82.8938 99.9555 84 97.2848 84 94.5V52.5C84 49.7152 82.8938 47.0445 80.9246 45.0754C78.9555 43.1063 76.2848 42 73.5 42H68.25V26.25C68.25 11.7758 56.4743 0 42 0ZM26.25 26.25C26.25 17.5665 33.3165 10.5 42 10.5C50.6835 10.5 57.75 17.5665 57.75 26.25V42H26.25V26.25ZM47.25 82.5457V94.5H36.75V82.5457C34.9145 81.4947 33.4407 79.912 32.5229 78.0064C31.605 76.1008 31.2862 73.9617 31.6086 71.8713C31.9309 69.7809 32.8793 67.8372 34.3285 66.2966C35.7778 64.7561 37.6599 63.6908 39.7268 63.2415C41.2619 62.9021 42.8537 62.9115 44.3848 63.2692C45.9158 63.6269 47.3471 64.3238 48.5729 65.3083C49.7988 66.2928 50.788 67.5399 51.4677 68.9577C52.1474 70.3755 52.5001 71.9277 52.5 73.5C52.497 75.3361 52.0101 77.1391 51.0884 78.7271C50.1667 80.3152 48.8428 81.6323 47.25 82.5457Z" fill="black" fill-opacity="0.25"/>
</svg>
