<svg width="17" height="30" viewBox="0 0 17 30" fill="none" xmlns="http://www.w3.org/2000/svg">
<path d="M5.36783 15L16.3757 3.8257C16.7808 3.39994 17.005 2.82971 16.9999 2.23782C16.9948 1.64593 16.761 1.07973 16.3487 0.661188C15.9363 0.242641 15.3786 0.00522872 14.7955 8.5337e-05C14.2124 -0.00505805 13.6507 0.222479 13.2313 0.633688L0.651102 13.404C0.2342 13.8273 0 14.4014 0 15C0 15.5986 0.2342 16.1727 0.651102 16.596L13.2313 29.3663C13.6507 29.7775 14.2124 30.0051 14.7955 29.9999C15.3786 29.9948 15.9363 29.7574 16.3487 29.3388C16.761 28.9203 16.9948 28.3541 16.9999 27.7622C17.005 27.1703 16.7808 26.6001 16.3757 26.1743L5.36783 15Z" fill="#008F3F"/>
</svg>
