<svg width="33" height="33" viewBox="0 0 33 33" fill="none" xmlns="http://www.w3.org/2000/svg">
<path d="M26.0526 17.3684H11.7237L17.3684 23.0132L16.2152 24.3158L8.39937 16.5L16.2152 8.68421L17.3684 9.98684L11.7237 15.6316H26.0526V17.3684ZM0 16.5C-3.2288e-08 14.3332 0.426785 12.1876 1.25599 10.1857C2.08519 8.18385 3.30057 6.36491 4.83274 4.83274C6.3649 3.30057 8.18385 2.08519 10.1857 1.25599C12.1876 0.426785 14.3332 0 16.5 0C18.6668 0 20.8124 0.426785 22.8143 1.25599C24.8161 2.08519 26.6351 3.30057 28.1673 4.83274C29.6994 6.36491 30.9148 8.18385 31.744 10.1857C32.5732 12.1876 33 14.3332 33 16.5C33 20.8761 31.2616 25.0729 28.1673 28.1673C25.0729 31.2616 20.8761 33 16.5 33C12.1239 33 7.92709 31.2616 4.83274 28.1673C1.73839 25.0729 6.52086e-08 20.8761 0 16.5ZM1.73684 16.5C1.73684 20.4154 3.29224 24.1705 6.06087 26.9391C8.8295 29.7078 12.5846 31.2632 16.5 31.2632C20.4154 31.2632 24.1705 29.7078 26.9391 26.9391C29.7078 24.1705 31.2632 20.4154 31.2632 16.5C31.2632 12.5846 29.7078 8.8295 26.9391 6.06087C24.1705 3.29224 20.4154 1.73684 16.5 1.73684C12.5846 1.73684 8.8295 3.29224 6.06087 6.06087C3.29224 8.8295 1.73684 12.5846 1.73684 16.5Z" fill="#008F3F"/>
</svg>
